<svg
    version="1.1"
    width="48"
    height="46"
    viewBox="0.0 0.0 279.8057742782152 374.8503937007874"
    stroke-linecap="square"
    stroke-miterlimit="10"
    xmlns:xlink="http://www.w3.org/1999/xlink"
    xmlns="http://www.w3.org/2000/svg"
>
    <clipPath id="p.0">
        <path
            d="m0 0l279.8058 0l0 374.8504l-279.8058 0l0 -374.8504z"
            clip-rule="nonzero"
        />
    </clipPath>
    <g clip-path="url(#p.0)">
        <path
            fill="#ffffff"
            fill-opacity="0.0"
            d="m0 0l279.8058 0l0 374.8504l-279.8058 0z"
            fill-rule="evenodd"
        />
        <path
            fill="#ffffff"
            fill-opacity="0.0"
            d="m249.37335 160.07417c-1.2611237 -5.0618744 1.8199921 -10.187683 6.881897 -11.448807c2.4307861 -0.60562134 5.0026245 -0.22079468 7.1496887 1.069809c2.1470642 1.2906036 3.693512 3.3812714 4.299103 5.8120728c1.2611389 5.0618896 -1.8199768 10.187698 -6.8818665 11.448822c-5.0618896 1.2611237 -10.187698 -1.8200073 -11.448822 -6.881897z"
            fill-rule="evenodd"
        />
        <path
            stroke="#ffffff"
            stroke-width="4.0"
            stroke-linejoin="round"
            stroke-linecap="butt"
            d="m249.37335 160.07417c-1.2611237 -5.0618744 1.8199921 -10.187683 6.881897 -11.448807c2.4307861 -0.60562134 5.0026245 -0.22079468 7.1496887 1.069809c2.1470642 1.2906036 3.693512 3.3812714 4.299103 5.8120728c1.2611389 5.0618896 -1.8199768 10.187698 -6.8818665 11.448822c-5.0618896 1.2611237 -10.187698 -1.8200073 -11.448822 -6.881897z"
            fill-rule="evenodd"
        />
        <path
            fill="#ffffff"
            fill-opacity="0.0"
            d="m172.67424 100.67716c0 -5.218437 4.230377 -9.448814 9.448822 -9.448814c2.5059814 0 4.9093323 0.99549866 6.68132 2.7674942c1.7720032 1.7719955 2.7675018 4.1753387 2.7675018 6.68132c0 5.218445 -4.230377 9.448822 -9.448822 9.448822c-5.218445 0 -9.448822 -4.230377 -9.448822 -9.448822z"
            fill-rule="evenodd"
        />
        <path
            stroke="#ffffff"
            stroke-width="4.0"
            stroke-linejoin="round"
            stroke-linecap="butt"
            d="m172.67424 100.67716c0 -5.218437 4.230377 -9.448814 9.448822 -9.448814c2.5059814 0 4.9093323 0.99549866 6.68132 2.7674942c1.7720032 1.7719955 2.7675018 4.1753387 2.7675018 6.68132c0 5.218445 -4.230377 9.448822 -9.448822 9.448822c-5.218445 0 -9.448822 -4.230377 -9.448822 -9.448822z"
            fill-rule="evenodd"
        />
        <path
            fill="#ffffff"
            fill-opacity="0.0"
            d="m116.6315 20.571074c0.6523056 -5.1749525 5.376236 -8.841282 10.551186 -8.188977c2.4850998 0.31324768 4.7439804 1.6008682 6.279701 3.5795984c1.5357361 1.9787292 2.222519 4.4864845 1.9092712 6.9715824c-0.652298 5.1749516 -5.3762207 8.841282 -10.551178 8.188976c-5.1749496 -0.6523037 -8.841278 -5.3762283 -8.18898 -10.55118z"
            fill-rule="evenodd"
        />
        <path
            stroke="#ffffff"
            stroke-width="4.0"
            stroke-linejoin="round"
            stroke-linecap="butt"
            d="m116.6315 20.571074c0.6523056 -5.1749525 5.376236 -8.841282 10.551186 -8.188977c2.4850998 0.31324768 4.7439804 1.6008682 6.279701 3.5795984c1.5357361 1.9787292 2.222519 4.4864845 1.9092712 6.9715824c-0.652298 5.1749516 -5.3762207 8.841282 -10.551178 8.188976c-5.1749496 -0.6523037 -8.841278 -5.3762283 -8.18898 -10.55118z"
            fill-rule="evenodd"
        />
        <path
            fill="#ffffff"
            fill-opacity="0.0"
            d="m10.524636 113.95043c0 -5.218445 4.23038 -9.448822 9.448819 -9.448822c2.5059834 0 4.9093266 0.99549866 6.681324 2.7674942c1.7719975 1.7719955 2.7674942 4.1753387 2.7674942 6.681328c0 5.218437 -4.230379 9.448814 -9.448818 9.448814c-5.218439 0 -9.448819 -4.230377 -9.448819 -9.448814z"
            fill-rule="evenodd"
        />
        <path
            stroke="#ffffff"
            stroke-width="4.0"
            stroke-linejoin="round"
            stroke-linecap="butt"
            d="m10.524636 113.95043c0 -5.218445 4.23038 -9.448822 9.448819 -9.448822c2.5059834 0 4.9093266 0.99549866 6.681324 2.7674942c1.7719975 1.7719955 2.7674942 4.1753387 2.7674942 6.681328c0 5.218437 -4.230379 9.448814 -9.448818 9.448814c-5.218439 0 -9.448819 -4.230377 -9.448819 -9.448814z"
            fill-rule="evenodd"
        />
        <path
            fill="#ffffff"
            fill-opacity="0.0"
            d="m98.67112 230.02313c-0.94802094 -5.1314545 2.4433365 -10.05986 7.5747986 -11.007874c2.4642181 -0.45524597 5.008354 0.08705139 7.072731 1.5075989c2.0643768 1.4205475 3.479889 3.6029968 3.9351425 6.0671997c0.94802094 5.1314697 -2.4433365 10.05986 -7.5747986 11.007889c-5.1314697 0.9480133 -10.05986 -2.443344 -11.007874 -7.574814z"
            fill-rule="evenodd"
        />
        <path
            stroke="#ffffff"
            stroke-width="4.0"
            stroke-linejoin="round"
            stroke-linecap="butt"
            d="m98.67112 230.02313c-0.94802094 -5.1314545 2.4433365 -10.05986 7.5747986 -11.007874c2.4642181 -0.45524597 5.008354 0.08705139 7.072731 1.5075989c2.0643768 1.4205475 3.479889 3.6029968 3.9351425 6.0671997c0.94802094 5.1314697 -2.4433365 10.05986 -7.5747986 11.007889c-5.1314697 0.9480133 -10.05986 -2.443344 -11.007874 -7.574814z"
            fill-rule="evenodd"
        />
        <path
            fill="#ffffff"
            fill-opacity="0.0"
            d="m98.51414 312.8822c0 -5.218445 4.230377 -9.448822 9.448822 -9.448822c2.5059814 0 4.9093246 0.9954834 6.68132 2.7674866c1.7719955 1.7720032 2.7674942 4.1753235 2.7674942 6.6813354c0 5.2184143 -4.230377 9.4487915 -9.448814 9.4487915c-5.218445 0 -9.448822 -4.230377 -9.448822 -9.4487915z"
            fill-rule="evenodd"
        />
        <path
            stroke="#ffffff"
            stroke-width="4.0"
            stroke-linejoin="round"
            stroke-linecap="butt"
            d="m98.51414 312.8822c0 -5.218445 4.230377 -9.448822 9.448822 -9.448822c2.5059814 0 4.9093246 0.9954834 6.68132 2.7674866c1.7719955 1.7720032 2.7674942 4.1753235 2.7674942 6.6813354c0 5.2184143 -4.230377 9.4487915 -9.448814 9.4487915c-5.218445 0 -9.448822 -4.230377 -9.448822 -9.4487915z"
            fill-rule="evenodd"
        />
        <path
            fill="#ffffff"
            fill-opacity="0.0"
            d="m148.0818 350.77228c-1.1219788 -5.0966797 2.100174 -10.137878 7.1968384 -11.259857c2.4475098 -0.53878784 5.0088196 -0.083221436 7.1204376 1.266449c2.1116333 1.3496704 3.6006165 3.4828796 4.1394043 5.9303894c1.1219635 5.0966797 -2.100174 10.137878 -7.1968384 11.259857c-5.0966797 1.1219482 -10.137878 -2.1001892 -11.259842 -7.1968384z"
            fill-rule="evenodd"
        />
        <path
            stroke="#ffffff"
            stroke-width="4.0"
            stroke-linejoin="round"
            stroke-linecap="butt"
            d="m148.0818 350.77228c-1.1219788 -5.0966797 2.100174 -10.137878 7.1968384 -11.259857c2.4475098 -0.53878784 5.0088196 -0.083221436 7.1204376 1.266449c2.1116333 1.3496704 3.6006165 3.4828796 4.1394043 5.9303894c1.1219635 5.0966797 -2.100174 10.137878 -7.1968384 11.259857c-5.0966797 1.1219482 -10.137878 -2.1001892 -11.259842 -7.1968384z"
            fill-rule="evenodd"
        />
        <path
            fill="#ffffff"
            fill-opacity="0.0"
            d="m250.44316 152.92448l-61.637787 -45.574806"
            fill-rule="evenodd"
        />
        <path
            stroke="#ffffff"
            stroke-width="1.0"
            stroke-linejoin="round"
            stroke-linecap="butt"
            d="m250.44316 152.92448l-61.637787 -45.574806"
            fill-rule="evenodd"
        />
        <path
            fill="#ffffff"
            fill-opacity="0.0"
            d="m175.44174 93.99584l-40.063004 -71.055115"
            fill-rule="evenodd"
        />
        <path
            stroke="#ffffff"
            stroke-width="1.0"
            stroke-linejoin="round"
            stroke-linecap="butt"
            d="m175.44174 93.99584l-40.063004 -71.055115"
            fill-rule="evenodd"
        />
        <path
            fill="#ffffff"
            fill-opacity="0.0"
            d="m26.65478 107.269104l89.98425 -86.708664"
            fill-rule="evenodd"
        />
        <path
            stroke="#ffffff"
            stroke-width="1.0"
            stroke-linejoin="round"
            stroke-linecap="butt"
            d="m26.65478 107.269104l89.98425 -86.708664"
            fill-rule="evenodd"
        />
        <path
            fill="#ffffff"
            fill-opacity="0.0"
            d="m19.973455 123.39925l86.267715 95.622055"
            fill-rule="evenodd"
        />
        <path
            stroke="#ffffff"
            stroke-width="1.0"
            stroke-linejoin="round"
            stroke-linecap="butt"
            d="m19.973455 123.39925l86.267715 95.622055"
            fill-rule="evenodd"
        />
        <path
            fill="#ffffff"
            fill-opacity="0.0"
            d="m109.67899 237.59795l-1.7007904 65.82677"
            fill-rule="evenodd"
        />
        <path
            stroke="#ffffff"
            stroke-width="1.0"
            stroke-linejoin="round"
            stroke-linecap="butt"
            d="m109.67899 237.59795l-1.7007904 65.82677"
            fill-rule="evenodd"
        />
        <path
            fill="#ffffff"
            fill-opacity="0.0"
            d="m114.64428 319.5635l34.708656 24.094482"
            fill-rule="evenodd"
        />
        <path
            stroke="#ffffff"
            stroke-width="1.0"
            stroke-linejoin="round"
            stroke-linecap="butt"
            d="m114.64428 319.5635l34.708656 24.094482"
            fill-rule="evenodd"
        />
    </g>
</svg>
